<?xml version="1.0" standalone="no"?><!DOCTYPE svg PUBLIC "-//W3C//DTD SVG 1.1//EN" "http://www.w3.org/Graphics/SVG/1.1/DTD/svg11.dtd">
<svg class="icon" viewBox="0 0 1063 1024" version="1.1" xmlns="http://www.w3.org/2000/svg" width="49.828125" height="48">
    <defs>
        <style type="text/css"></style>
    </defs>
    <path d="M0 512V1024h1063.896104V0H0v512zM497.637403 192.033247c5.053506 1.595844 14.362597 6.383377 20.745974 10.638961 6.649351 4.255584 15.692468 7.447273 20.48 7.447273 9.575065 0 25.001558 12.234805 25.267532 20.48 0 4.521558 19.682078 15.692468 36.172468 20.745974 7.979221 2.393766 16.224416 14.362597 17.288311 25.267532 0.531948 6.915325 2.127792 9.575065 6.117403 10.107013 2.925714 0.265974 15.426494 3.191688 27.661299 6.383377 18.884156 4.787532 24.46961 7.713247 34.044675 16.756363 15.160519 14.628571 15.692468 25.799481 2.127792 40.96-8.245195 9.043117-8.777143 10.638961-5.31948 13.564676 3.457662 2.925714 7.447273 2.127792 22.607792-3.723637 21.277922-8.511169 44.94961-14.628571 67.823376-17.554285 30.055065-3.98961 53.194805-8.245195 58.514286-10.638962 22.341818-10.372987 74.738701-13.564675 107.719481-6.64935 31.916883 6.649351 48.141299 21.011948 64.897662 57.450389 25.001558 54.790649 17.554286 96.282597-24.735584 138.04052-32.980779 32.448831-55.322597 44.94961-92.027013 50.535065-10.107013 1.595844-19.682078 3.98961-21.277922 5.31948-3.98961 3.191688-45.215584 8.511169-94.42078 11.968832-5.053506 0.531948-10.638961 0.797922-12.234805 1.063896-1.595844 0-4.521558 5.319481-6.383376 11.436883-8.245195 28.459221-28.725195 53.460779-49.737143 61.174026-6.649351 2.393766-10.904935 7.181299-18.618182 21.80987-5.585455 10.372987-10.904935 21.011948-11.968831 23.671688-1.063896 2.65974-9.841039 16.49039-19.15013 30.852987-15.160519 22.873766-18.352208 26.331429-27.927273 29.257143-12.234805 3.457662-12.500779 4.787532-6.915325 23.13974 5.585455 18.618182 5.319481 22.873766-1.861818 21.80987-4.521558-0.531948-7.181299-4.521558-11.968831-18.086233l-5.851429-17.288312-10.107013 0.531948c-5.319481 0.531948-10.638961 1.595844-11.968831 2.925714-1.063896 1.063896 0 7.447273 2.659741 14.362598 3.457662 9.841039 3.723636 13.298701 1.063896 15.958441-4.521558 4.521558-14.628571-5.585455-19.15013-18.884156-2.925714-9.575065-4.255584-10.372987-15.426494-11.968831-6.383377-0.797922-17.022338-1.595844-23.405714-1.595844-14.628571 0-19.682078-2.127792-19.682078-7.979221 0-9.043117 6.649351-11.436883 27.395325-9.309091 30.587013 3.191688 44.151688 2.65974 68.887272-2.925714 22.075844-5.053506 36.704416-13.298701 36.704416-20.48 0-1.595844 2.65974-6.383377 6.117403-10.904935 3.457662-4.521558 12.766753-20.745974 20.48-35.640519 13.298701-25.533506 14.096623-27.927273 9.575065-30.321039-2.65974-1.595844-8.511169-5.851429-12.766754-9.841039l-7.97922-7.181299-9.841039 9.575065c-5.585455 5.053506-18.618182 17.554286-28.991169 27.395325-19.682078 18.884156-27.661299 21.80987-29.257143 10.372987-0.531948-3.723636-3.191688-6.383377-7.979221-7.447273-3.98961-0.797922-11.702857-2.65974-17.288312-4.255585-5.585455-1.32987-15.692468-1.595844-22.341818-0.531948-8.777143 1.32987-12.500779 0.797922-14.096623-1.861818-2.393766-3.723636-25.799481-5.851429-55.588572-5.053506-4.787532 0-11.968831-1.861818-15.426493-4.255585-5.319481-3.191688-8.245195-3.457662-13.564675-1.32987-12.234805 4.787532-114.102857 0-128.465455-6.117402-2.925714-1.32987-5.851429 0-8.511169 3.98961-5.585455 7.713247-28.991169 10.638961-35.906493 4.255584-3.191688-2.925714-5.851429-3.457662-8.511169-1.861818-2.127792 1.32987-6.915325 2.65974-10.372987 2.65974h-6.383377l1.32987 37.768312c1.32987 32.182857 2.65974 41.225974 8.511169 57.982338 6.117403 17.554286 6.649351 20.214026 2.925715 23.671688-3.457662 3.723636-4.521558 3.457662-9.043117-1.063896-11.170909-11.436883-16.224416-34.576623-18.086234-79.792208l-1.595844-42.28987-8.511169-8.777143c-6.649351-6.915325-10.638961-8.777143-18.618182-8.777143-10.372987 0-19.948052-5.851429-19.948052-12.500779 0-2.127792-3.457662-3.457662-10.107013-3.457662-11.968831 0-18.352208-5.585455-20.745974-18.086234-1.32987-6.383377-3.457662-8.511169-9.309091-9.841039-10.107013-2.127792-16.756364-14.628571-14.894545-27.129351 1.32987-7.713247 0.797922-8.777143-3.989611-8.777142-13.564675 0-20.745974-21.011948-11.702857-33.246754 3.191688-4.521558 2.925714-5.851429-1.595844-11.968831-4.255584-5.851429-4.521558-8.245195-2.127792-14.894545 1.595844-4.255584 4.787532-9.575065 6.915325-12.234805 3.723636-3.98961 3.723636-5.053506-0.265974-11.17091-5.585455-8.511169-3.191688-21.277922 5.585454-28.991168 3.98961-3.457662 6.383377-8.245195 6.383377-13.032728 0-12.500779 6.915325-22.341818 19.948052-28.725194 7.447273-3.723636 11.968831-7.447273 11.968831-10.372987 0-7.181299 8.245195-13.032727 20.745974-15.16052 8.777143-1.32987 12.234805-3.457662 15.426493-9.309091 7.181299-14.096623 24.735584-17.288312 40.428052-7.713247 15.692468 9.575065 18.618182 6.915325 18.618182-16.756363 0-22.075844 13.032727-41.491948 36.704416-54.79065 15.160519-8.777143 21.80987-16.224416 30.321039-33.512727 6.915325-14.628571 24.735584-34.842597 35.108571-40.162078 14.894545-7.713247 30.321039-10.904935 45.747533-9.575065 12.500779 1.063896 16.224416 0.265974 21.011948-3.98961 23.13974-21.011948 57.45039-30.055065 81.92-21.543896z m19.682078 597.90961c0 5.319481-1.595844 6.915325-6.915325 7.447273-7.979221 1.063896-12.234805-5.851429-7.447273-11.968831 5.319481-6.117403 14.362597-3.191688 14.362598 4.521558z"
          fill="#813c85"></path>
    <path d="M526.628571 244.43013c-4.787532 11.968831-17.82026 20.214026-39.630129 25.533506-25.267532 6.117403-31.650909 11.968831-34.576624 30.055065-3.191688 19.948052-8.245195 23.13974-9.575065 5.851429-0.265974-4.521558-1.32987-8.777143-2.127792-9.575065-2.393766-2.65974-7.713247 19.948052-5.851429 25.533506 1.063896 3.191688 0.531948 5.319481-1.063896 5.319481-1.595844 0-2.925714-4.787532-2.925714-10.638961s-1.063896-10.638961-2.127792-10.638961-6.915325 5.053506-12.766753 11.170909c-10.904935 11.436883-17.022338 26.331429-17.022338 41.225974 0 4.521558-1.861818 9.575065-3.98961 11.436883-9.575065 7.713247-2.393766 34.044675 14.894545 56.12052 9.043117 11.436883 9.575065 15.958442 2.925714 21.80987-7.447273 6.649351-9.575065 5.851429-21.80987-8.777143-7.447273-8.777143-13.032727-13.032727-16.756363-12.766753-3.191688 0-8.777143-0.531948-12.50078-1.595845-13.564675-3.191688-18.352208 6.915325-15.160519 31.118961 1.32987 9.841039 3.191688 11.170909 21.011948 14.894546 11.968831 2.65974 17.022338 5.319481 22.607792 11.968831 5.585455 6.649351 10.107013 9.309091 18.884156 10.372987 11.702857 1.32987 21.80987 7.979221 21.80987 13.830649 0 1.861818 3.98961 4.787532 8.777143 6.649351 21.011948 7.713247 25.799481 10.638961 27.395325 17.022338 1.063896 5.053506 6.117403 8.777143 18.618181 14.628571 12.234805 5.851429 18.086234 10.107013 20.48 15.692468 1.861818 3.98961 8.245195 11.968831 14.628572 17.554285 6.915325 6.383377 11.170909 12.500779 11.170909 16.224416 0 10.107013 10.904935 25.001558 17.288312 23.671688 3.191688-0.797922 7.713247 1.063896 11.436883 4.255585 6.915325 6.383377 7.447273 10.107013 1.595844 12.500779-2.925714 1.063896-3.723636 3.457662-2.393766 8.511169 2.393766 9.309091 6.383377 11.170909 13.564675 6.383376 5.053506-3.191688 5.585455-4.787532 2.925714-8.777142-3.98961-6.649351-2.393766-7.713247 13.298702-9.043117 17.288312-1.595844 36.438442-10.638961 42.821818-20.745974 7.181299-11.436883 4.787532-17.022338-8.511169-20.48-19.416104-4.787532-35.906494-18.086234-46.545455-37.502338-9.575065-17.288312-9.575065-17.288312-9.575065-50.801039v-33.512727l11.436884-22.607792c19.15013-38.034286 40.96-57.45039 77.132467-68.621299 6.117403-1.861818 11.170909-5.053506 11.170909-6.649351 0-4.521558-11.702857-9.309091-16.224415-6.383376-6.117403 3.723636-25.267532 2.925714-28.991169-1.595845-4.521558-5.585455-1.861818-10.904935 8.245195-15.958441 6.649351-3.457662 9.841039-3.98961 14.894545-1.595844 8.777143 3.98961 18.352208 3.723636 27.395325-1.063896 9.043117-4.787532 11.968831-12.234805 7.97922-20.214026-3.723636-6.915325-26.863377-17.288312-45.747532-20.745974-34.044675-6.117403-39.364156-8.245195-39.364156-15.16052 0-3.457662 1.32987-6.383377 2.65974-6.383376 1.595844 0 2.65974-2.925714 2.659741-6.649351s-1.063896-6.649351-2.659741-6.649351c-1.32987 0-2.65974 1.063896-2.65974 2.65974 0 1.32987-2.393766 2.65974-5.053506 2.659741-3.457662 0-5.585455-2.393766-6.915325-7.713247-1.32987-6.117403-4.255584-8.777143-14.894545-13.032727-7.181299-3.191688-13.032727-6.915325-13.032728-8.245195 0-1.595844-4.521558-2.925714-10.107013-2.925714-5.585455 0-11.436883-1.32987-13.032727-2.925715-1.861818-1.861818-3.723636-0.265974-6.117403 5.319481z m44.417663 36.438441c4.255584 6.915325 3.191688 14.362597-2.65974 14.362598-1.861818 0-7.979221-2.393766-13.83065-5.319481-15.692468-7.979221-22.075844-6.915325-33.778701 5.851429-5.585455 6.117403-10.107013 13.032727-10.107013 15.692467 0 7.181299-2.925714 13.298701-5.585455 11.436884-1.32987-0.797922-2.393766-7.181299-2.393766-14.362598 0-11.436883 1.063896-14.362597 9.309091-22.607792 5.319481-5.053506 12.766753-9.841039 16.756364-10.904935 3.98961-0.797922 9.575065-2.393766 12.500779-3.457662 7.979221-3.191688 25.001558 2.393766 29.789091 9.30909z m0.797922 39.896104c3.723636 9.841039-1.063896 17.554286-10.107013 16.49039-4.787532-0.531948-7.447273-2.65974-7.979221-6.117403-1.595844-7.979221-4.787532-10.107013-10.904935-6.915324-3.457662 1.861818-5.585455 2.127792-5.585455 0.531948 0-3.457662 4.255584-6.117403 14.362598-8.511169 14.362597-3.457662 17.554286-2.65974 20.214026 4.521558z m42.555844 10.372987c0 0.531948-2.925714 3.98961-6.649351 7.713247s-6.649351 8.511169-6.64935 10.904935c0 2.127792-1.063896 3.98961-2.659741 3.989611-3.457662 0-3.457662-1.595844 0.265974-8.777143 5.585455-10.372987 15.692468-19.682078 15.692468-13.83065z m-237.514805 110.911169c3.457662 3.191688 6.117403 7.181299 6.117402 9.043117 0 4.521558-7.447273 6.915325-13.298701 3.723636-2.65974-1.595844-7.447273-2.65974-10.372987-2.65974-6.915325 0-7.713247-9.309091-0.797922-13.032727 6.915325-4.255584 11.702857-3.457662 18.352208 2.925714z"
          fill="#813c85"></path>
    <path d="M871.064935 336.989091c-2.925714 0.531948-13.032727 3.191688-22.607792 6.117403-9.575065 2.65974-32.714805 7.447273-51.864935 10.638961-42.28987 7.181299-58.78026 11.436883-93.090909 24.203636-14.628571 5.585455-31.916883 11.436883-38.566234 13.032727-37.502338 9.841039-70.217143 44.94961-79.792208 85.909611-3.723636 15.958442-2.925714 46.545455 1.063896 58.514285 9.043117 25.001558 30.055065 39.63013 62.237922 42.821818 12.766753 1.595844 17.82026 1.063896 22.341819-2.127792 9.841039-6.915325 21.80987-5.319481 30.587012 3.723637 3.98961 4.255584 8.511169 7.979221 9.575065 7.97922 1.32987 0 6.383377-3.191688 11.436884-7.181298 9.043117-6.915325 10.904935-7.181299 46.013506-7.713247 19.948052-0.265974 43.61974-1.861818 52.396883-3.457662 9.043117-1.595844 18.086234-2.393766 20.214026-1.595845 2.127792 0.797922 9.043117-0.797922 15.692468-3.457662 6.383377-2.925714 17.288312-5.851429 23.937662-6.915325 17.82026-2.65974 46.013506-13.032727 58.78026-21.80987 24.735584-16.756364 47.077403-40.96 57.184415-61.44l9.841039-19.682078-2.65974-22.075844c-2.127792-16.49039-5.585455-27.129351-13.830649-44.151688-19.416104-39.896104-34.044675-48.939221-84.313767-51.067013-15.958442-0.797922-31.650909-0.797922-34.576623-0.265974z m28.193247 82.983896c-3.191688 5.851429-9.841039 7.979221-7.181299 2.127792 0.797922-1.595844 2.393766-5.319481 3.191688-7.979221 1.063896-3.191688 2.65974-3.98961 4.255585-2.393766 1.595844 1.595844 1.595844 4.521558-0.265974 8.245195z m-241.77039 4.521558c-3.191688 2.127792-7.979221 3.723636-10.638961 2.925715-3.723636-0.797922-3.191688-1.595844 2.127792-3.989611 10.372987-4.521558 15.426494-3.98961 8.511169 1.063896z m132.455065 3.457663c0 1.063896 2.925714 6.383377 6.649351 11.702857 3.457662 5.319481 5.319481 10.372987 4.255584 11.170909-2.393766 1.32987-16.224416-17.82026-16.224415-22.607792 0-1.32987 1.32987-2.65974 2.65974-2.65974 1.595844 0 2.65974 1.063896 2.65974 2.393766z m23.937662 12.234805c0 2.127792-0.531948 3.98961-1.063896 3.98961s-1.595844-1.861818-2.65974-3.98961c-0.797922-2.127792-0.265974-3.98961 1.063896-3.98961 1.595844 0 2.65974 1.861818 2.65974 3.98961z m128.997403 22.873766c2.925714 4.521558 0.531948 4.787532-5.053506 0.797922-4.521558-3.191688-4.521558-3.723636-1.063897-3.723636 2.393766 0 5.319481 1.32987 6.117403 2.925714z m-210.11948 6.649351c3.457662 2.393766 13.298701 4.521558 22.075844 4.787532 11.702857 0.531948 17.288312 2.127792 21.543896 6.117403 5.851429 5.585455 3.723636 11.170909-2.65974 7.181299-1.861818-1.063896-11.968831-2.127792-22.607793-2.659741-16.224416-0.797922-20.48 0-26.065454 4.521559-4.521558 3.457662-8.777143 4.787532-12.500779 3.723636-3.98961-1.32987-6.649351-0.265974-9.309091 3.723637-5.319481 7.447273-28.459221 8.245195-27.129351 0.797922 0.531948-2.393766 3.191688-4.787532 6.117403-4.787533 2.925714-0.265974 7.447273-0.531948 10.107013-0.797922 2.925714-0.265974 4.521558-2.393766 4.521558-6.915325 0-3.723636 1.32987-6.649351 3.191688-6.64935 1.595844 0 2.393766-0.531948 1.595845-1.32987-0.797922-0.797922-4.521558-0.265974-7.979221 1.595844-5.319481 2.393766-8.245195 2.127792-14.362598-1.32987l-7.713246-4.255585 7.181298 1.595844c4.255584 1.063896 9.575065-0.265974 13.83065-2.925714 5.053506-3.457662 9.841039-4.255584 17.554285-2.925714 6.649351 1.063896 10.638961 0.531948 10.638961-1.063896 0-3.98961 4.521558-3.191688 11.968832 1.595844z m211.981298 15.160519c-0.797922 2.65974-3.98961 5.851429-7.181298 7.181299-3.98961 1.595844-6.649351 5.319481-7.713247 11.170909-1.861818 10.638961-9.841039 18.086234-18.884156 18.086234-3.723636 0-6.649351 1.32987-6.649351 2.65974 0 2.65974-21.543896 13.298701-26.863376 13.298701-1.32987 0-2.393766-2.393766-2.393767-5.31948 0-3.723636 3.191688-6.649351 10.372987-9.575065 5.851429-2.127792 11.170909-5.851429 11.968832-7.979221 0.797922-2.127792 3.723636-3.723636 6.383376-3.723636 2.925714 0 6.649351-1.861818 8.511169-3.989611 1.861818-2.127792 5.053506-3.98961 6.915325-3.98961 2.127792 0 3.723636-2.65974 3.723636-6.117403 0-7.447273 4.521558-12.500779 11.170909-12.500779 2.925714 0 5.319481-2.65974 6.383377-7.181298 1.595844-6.383377 2.127792-6.649351 3.723636-2.127793 1.063896 2.925714 1.32987 7.447273 0.531948 10.107013z m-121.55013-0.797922c0.797922 1.32987 0.531948 2.65974-1.063896 2.659741-1.32987 0-3.457662-1.32987-4.255584-2.659741-0.797922-1.595844-0.531948-2.65974 1.063896-2.65974 1.32987 0 3.457662 1.063896 4.255584 2.65974zM710.150649 550.566234c0 1.32987-1.32987 2.65974-2.65974 2.65974-1.595844 0-2.127792 2.925714-1.063896 6.915325 1.32987 5.053506 1.063896 6.649351-1.32987 5.31948-3.191688-2.127792-3.98961-12.766753-1.063896-15.692467 2.65974-2.65974 6.117403-2.127792 6.117402 0.797922z m20.745974 10.638961c-3.191688 4.255584-7.713247 7.979221-9.841039 7.979221-2.65974 0-1.595844-2.393766 3.723637-7.979221 4.255584-4.521558 8.777143-7.979221 9.841039-7.979221 1.32987 0-0.265974 3.457662-3.723637 7.979221z"
          fill="#813c85"></path>
    <path d="M912.290909 513.32987c0 1.32987 1.32987 2.65974 2.925714 2.65974 1.32987 0 1.861818-1.32987 1.063896-2.65974-0.797922-1.595844-2.127792-2.65974-2.925714-2.65974-0.531948 0-1.063896 1.063896-1.063896 2.65974zM202.672208 389.385974c2.127792 10.107013-1.595844 13.298701-17.022338 14.894545-13.298701 1.32987-14.096623 1.861818-14.894545 9.309091-1.063896 9.309091-6.915325 14.628571-15.692468 14.628572-3.457662 0-9.309091 1.861818-13.032727 4.255584-5.585455 3.723636-6.117403 5.851429-4.787533 13.564676 1.595844 8.245195 0.531948 10.107013-8.245194 18.086233-9.841039 9.309091-10.372987 14.628571-1.329871 14.628572 3.457662 0 5.851429 2.393766 6.915325 6.915324 1.595844 5.851429 0 8.777143-7.979221 16.49039l-9.841039 9.309091 6.117403 2.925714c8.511169 4.255584 9.043117 10.904935 1.063896 22.873766-9.575065 14.362597-9.043117 17.022338 3.191688 15.426494 6.649351-1.063896 11.170909-0.265974 13.564676 2.393766 3.191688 3.457662 4.521558 2.925714 10.107013-4.255584 8.245195-10.372987 18.352208-11.170909 19.948052-1.861818 1.063896 5.053506-1.32987 9.043117-10.372987 18.086233-11.170909 10.904935-11.968831 11.170909-15.426494 6.383377-4.255584-5.585455-5.851429-3.457662-7.181299 8.777143-0.797922 5.851429 0.265974 6.383377 10.904936 6.649351 13.830649 0.265974 19.682078 6.383377 14.096623 14.894545-3.457662 5.851429-4.255584 13.298701-1.063896 13.298701 1.063896 0 6.915325-2.65974 13.032727-5.851428 9.575065-5.053506 11.436883-5.319481 15.426494-2.127793 3.457662 2.925714 3.98961 6.117403 2.925714 14.096624l-1.861818 10.372987 14.362597-1.595844c12.234805-1.595844 14.894545-1.063896 19.15013 3.723636 2.65974 2.925714 7.447273 5.319481 10.638961 5.319481 3.723636 0 6.649351 2.127792 7.447273 5.31948 1.861818 6.915325 7.713247 6.915325 13.830649 0 7.181299-7.713247 14.628571-6.649351 18.086234 2.65974 1.595844 4.255584 3.98961 7.979221 4.787532 7.979221 1.063896 0 5.585455-3.723636 9.841039-7.979221 9.309091-9.043117 15.160519-9.841039 28.459221-3.457662 7.979221 3.723636 11.436883 3.98961 25.799481 1.32987 13.830649-2.65974 17.288312-2.393766 20.745974 0.797922 5.851429 5.319481 28.193247 5.319481 30.321039 0 1.861818-5.053506 11.968831-5.053506 18.618181 0 7.713247 5.851429 13.564675 4.787532 18.618182-2.65974 5.851429-8.777143 16.49039-9.043117 20.48-0.265974 1.595844 3.457662 5.851429 7.713247 9.043117 9.575065 5.319481 2.925714 7.181299 2.65974 13.564675-2.393766 7.979221-6.383377 14.894545-5.585455 23.937663 2.65974 4.787532 4.521558 5.851429 4.521558 10.638961 1.063896 6.915325-5.319481 12.500779-5.053506 23.405714 1.595844l9.575065 5.585455V654.296104c0-6.383377-2.393766-10.638961-9.309091-16.756364-5.851429-5.053506-9.309091-10.638961-9.309091-14.628571 0-6.649351-3.98961-11.702857-11.436883-14.628572-3.723636-1.32987-4.521558-3.98961-3.98961-10.372987 0.797922-7.979221-0.265974-9.309091-11.702857-15.426493-15.958442-8.777143-16.756364-9.575065-12.766754-14.362598 2.65974-3.457662 0.797922-5.053506-12.500779-11.170909-8.511169-3.98961-18.352208-7.979221-22.075844-9.043116-5.053506-1.32987-6.649351-3.457662-6.649351-8.777143 0.265974-6.117403-1.32987-7.713247-9.309091-9.841039-5.053506-1.32987-13.032727-2.65974-17.820259-2.659741-9.309091 0-14.362597-7.979221-8.777143-14.628571 3.723636-4.521558-1.595844-6.117403-22.607792-7.181299-12.766753-0.797922-13.298701-1.063896-14.096624-9.309091-0.797922-8.245195-6.915325-13.564675-9.841039-8.777142-2.127792 3.457662-16.49039 3.457662-18.618182-0.265974-1.063896-1.32987-4.521558-3.723636-7.97922-5.053507-4.521558-1.595844-6.649351-5.319481-7.979221-13.298701-1.595844-9.043117-2.925714-10.904935-7.447273-10.372987-10.904935 0.797922-11.702857-0.265974-13.298701-12.50078-1.595844-14.894545-4.521558-18.618182-11.968831-14.628571-4.255584 2.127792-5.585455 1.595844-8.245195-3.98961-1.595844-3.723636-2.925714-9.309091-2.925714-12.766754 0-8.777143-2.925714-10.372987-7.447273-3.98961-6.117403 8.777143-14.096623 5.585455-18.618182-8.245195-3.98961-11.436883-3.98961-11.702857-7.979221-5.851428-5.053506 7.713247-7.181299 7.447273-19.948052-3.457663-13.564675-11.702857-27.129351-13.298701-25.267532-2.925714z m-12.500779 175.808831c3.457662 7.181299 14.628571 18.086234 16.490389 16.224416 0.797922-0.797922 3.723636-0.265974 6.383377 1.32987 6.117403 3.191688 6.649351 11.170909 0.797922 15.958441-3.457662 2.925714-5.053506 2.65974-9.841039 0-3.98961-2.65974-5.851429-2.925714-6.649351-0.531948-0.531948 1.595844-3.98961 2.925714-7.447272 2.925715-6.117403 0-7.979221-4.255584-6.649351-15.692468 0.531948-2.65974-0.797922-2.65974-5.319481 0.797922-12.766753 9.043117-17.82026-7.979221-6.117402-20.48 7.713247-8.245195 14.096623-8.511169 18.352208-0.531948z m167.563636 1.063896c6.915325 3.98961 7.979221 6.383377 8.777143 18.352208 0.797922 13.298701 0.531948 13.830649-5.851429 13.830649-5.319481 0-7.713247-2.127792-10.638961-8.777142-3.191688-6.915325-3.98961-7.447273-3.98961-2.925715-0.265974 3.191688-2.127792 7.181299-4.255585 9.043117-3.457662 2.65974-5.053506 2.65974-9.309091-1.32987-6.117403-5.585455-6.649351-12.234805-1.861818-20.48 7.181299-13.298701 14.362597-15.160519 27.129351-7.713247z m32.714805 15.692468c1.063896 13.298701-4.521558 17.288312-12.766753 9.841039-6.383377-5.851429-6.915325-12.766753-1.063896-18.618182 7.447273-7.447273 13.032727-3.98961 13.830649 8.777143z m17.82026-2.127792c0 4.787532-1.595844 6.915325-6.117403 7.447272-6.383377 1.063896-10.107013-4.787532-7.447272-11.702857 0.797922-2.393766 3.98961-3.723636 7.447272-3.191688 4.521558 0.531948 6.117403 2.65974 6.117403 7.447273z m82.983896 35.108571c1.063896 1.861818 5.053506 3.457662 8.777143 3.457662 4.521558 0 6.915325 1.861818 7.979221 6.649351 3.457662 12.766753-6.915325 17.82026-14.628572 7.181299-3.191688-3.98961-5.053506-4.787532-5.851428-2.659741-1.595844 4.521558-7.447273 4.255584-11.436884-0.531948-5.319481-6.383377-1.063896-17.288312 6.649351-17.288311 3.457662 0 7.447273 1.595844 8.511169 3.191688zM681.957403 599.505455c1.861818 11.170909 1.595844 11.702857-6.383377 14.362597-4.255584 1.595844-9.309091 6.117403-11.170909 10.107013-3.191688 6.649351-2.65974 7.713247 9.309091 18.618182 14.362597 13.032727 15.958442 13.032727 37.502337-1.595844 9.575065-6.649351 14.362597-12.500779 20.48-25.267533 7.713247-16.49039 9.575065-25.267532 5.585455-25.267532-1.063896 0-6.117403 2.925714-11.170909 6.64935-11.968831 9.043117-21.277922 8.511169-30.587013-1.32987-11.436883-11.702857-15.692468-10.638961-13.564675 3.723637zM653.498182 597.643636c-0.797922 1.32987-2.127792 5.851429-2.925714 10.372987-2.925714 13.298701-22.607792 29.257143-41.757923 34.044676-3.98961 0.797922-11.968831 5.585455-18.086233 10.638961-5.851429 5.053506-12.234805 9.575065-14.096624 10.107013-6.915325 2.393766 1.595844 7.447273 12.766754 7.447272 9.309091 0 13.298701-1.595844 19.416103-7.447272 3.98961-3.98961 15.160519-14.894545 25.001559-24.203637 9.841039-9.043117 17.82026-18.086234 17.82026-19.682078 0-1.32987 2.925714-6.649351 6.64935-11.436883 3.723636-4.787532 6.649351-9.309091 6.649351-10.107013 0-2.393766-10.107013-1.861818-11.436883 0.265974z"
          fill="#813c85"></path>
</svg>