<?xml version="1.0" standalone="no"?><!DOCTYPE svg PUBLIC "-//W3C//DTD SVG 1.1//EN" "http://www.w3.org/Graphics/SVG/1.1/DTD/svg11.dtd">
<svg class="icon" viewBox="0 0 1066 1024" version="1.1" xmlns="http://www.w3.org/2000/svg" width="49.96875" height="48">
    <defs>
        <style type="text/css"></style>
    </defs>
    <path d="M433.066667 201.6c-3.2 4.266667-25.6 11.733333-49.066667 16-32 5.333333-48 14.933333-61.866667 38.4-10.666667 17.066667-32 41.6-48 53.333333-16 12.8-28.8 33.066667-28.8 44.8 0 14.933333-5.333333 19.2-17.066666 14.933334-16-6.4-55.466667 13.866667-91.733334 46.933333-17.066667 16-36.266667 82.133333-34.133333 117.333333 3.2 44.8 48 99.2 98.133333 118.4 18.133333 7.466667 23.466667 17.066667 23.466667 49.066667 0 46.933333 9.6 88.533333 20.266667 88.533333 4.266667 0 6.4-26.666667 3.2-60.8-5.333333-56.533333-4.266667-59.733333 18.133333-53.333333 11.733333 3.2 24.533333 2.133333 27.733333-3.2 3.2-4.266667 33.066667-6.4 66.133334-4.266667C533.333333 680.533333 576 684.8 582.4 694.4c3.2 5.333333 20.266667-2.133333 38.4-17.066667 48-40.533333 62.933333-19.2 25.6 37.333334-28.8 43.733333-37.333333 46.933333-109.866667 42.666666-28.8-1.066667-35.2 2.133333-35.2 20.266667 0 12.8 5.333333 22.4 10.666667 22.4 6.4 0 10.666667-5.333333 10.666667-10.666667 0-16 17.066667-12.8 36.266666 5.333334 20.266667 20.266667 32 20.266667 23.466667 0-3.2-8.533333-1.066667-16 5.333333-16 5.333333 0 12.8 7.466667 16 16 9.6 23.466667 24.533333 19.2 18.133334-5.333334-3.2-11.733333-1.066667-21.333333 5.333333-21.333333s25.6-24.533333 43.733333-53.333333c18.133333-29.866667 40.533333-56.533333 48-59.733334 8.533333-3.2 21.333333-20.266667 27.733334-37.333333 11.733333-26.666667 19.2-30.933333 52.266666-30.933333 73.6 0 145.066667-28.8 186.666667-74.666667 41.6-46.933333 45.866667-67.2 23.466667-121.6-18.133333-43.733333-54.4-70.4-97.066667-70.4-29.866667 0-125.866667 18.133333-202.666667 38.4-28.8 7.466667-30.933333 6.4-17.066666-9.6 18.133333-23.466667 1.066667-45.866667-42.666667-55.466667-17.066667-4.266667-30.933333-12.8-30.933333-20.266666s-10.666667-19.2-23.466667-26.666667c-13.866667-6.4-38.4-21.333333-56.533333-32-33.066667-21.333333-96-28.8-105.6-12.8z m147.2 60.8c9.6 8.533333 17.066667 20.266667 17.066666 24.533333 0 4.266667 18.133333 12.8 40.533334 18.133334 43.733333 10.666667 55.466667 41.6 16 41.6-13.866667 0-23.466667 4.266667-22.4 10.666666 2.133333 5.333333 9.6 9.6 19.2 7.466667 11.733333-2.133333 10.666667 2.133333-4.266667 13.866667-11.733333 8.533333-24.533333 16-29.866667 16-11.733333 0-51.2 81.066667-51.2 106.666666 0 35.2 28.8 82.133333 54.4 88.533334 20.266667 5.333333 21.333333 8.533333 9.6 22.4-7.466667 9.6-22.4 17.066667-33.066666 17.066666-11.733333 0-20.266667 6.4-21.333334 12.8 0 10.666667-2.133333 10.666667-6.4 0-17.066667-42.666667-101.333333-122.666667-162.133333-152.533333-55.466667-28.8-68.266667-42.666667-53.333333-57.6 6.4-6.4 18.133333-5.333333 32 3.2 27.733333 18.133333 36.266667 10.666667 20.266666-18.133333-18.133333-34.133333-2.133333-97.066667 26.666667-107.733334 13.866667-5.333333 25.6-13.866667 27.733333-19.2 5.333333-12.8 62.933333-42.666667 86.4-43.733333 9.6-1.066667 25.6 6.4 34.133334 16z m400 106.666667c13.866667 17.066667 22.4 43.733333 22.4 68.266666 0 71.466667-82.133333 123.733333-202.666667 129.066667-26.666667 1.066667-56.533333 6.4-67.2 11.733333-9.6 5.333333-24.533333 6.4-32 1.066667-6.4-4.266667-27.733333-6.4-46.933333-4.266667-26.666667 2.133333-37.333333-3.2-52.266667-24.533333-21.333333-33.066667-14.933333-93.866667 12.8-124.8 30.933333-34.133333 195.2-81.066667 289.066667-83.2 46.933333-1.066667 57.6 3.2 76.8 26.666667z m-736 36.266666c10.666667 0 54.4 37.333333 54.4 46.933334 0 4.266667-5.333333 4.266667-12.8 0s-8.533333-3.2-4.266667 4.266666c4.266667 6.4 13.866667 9.6 22.4 5.333334 8.533333-3.2 16-1.066667 16 4.266666 0 4.266667 17.066667 18.133333 37.333333 28.8 20.266667 11.733333 37.333333 24.533333 37.333334 29.866667 0 4.266667 9.6 8.533333 20.266666 8.533333 24.533333 0 38.4 17.066667 22.4 26.666667-13.866667 8.533333-13.866667 26.666667 1.066667 26.666667 5.333333 0 7.466667-5.333333 4.266667-10.666667-4.266667-6.4 3.2-9.6 16-7.466667 22.4 3.2 42.666667 23.466667 42.666666 43.733334 0 5.333333-6.4 3.2-14.933333-3.2-10.666667-9.6-16-8.533333-20.266667 3.2-3.2 8.533333-1.066667 18.133333 6.4 20.266666 7.466667 2.133333 9.6 8.533333 5.333334 12.8-4.266667 4.266667-14.933333 2.133333-23.466667-4.266666-10.666667-9.6-17.066667-9.6-22.4-1.066667s-11.733333 8.533333-20.266667 1.066667c-7.466667-6.4-16-9.6-19.2-6.4-3.2 3.2-37.333333 6.4-76.8 8.533333-57.6 2.133333-69.333333 0-65.066666-12.8 4.266667-11.733333 3.2-12.8-10.666667-1.066667-12.8 10.666667-16 10.666667-16-3.2 0-8.533333 7.466667-18.133333 16-22.4 19.2-7.466667 33.066667-4.266667 28.8 6.4-4.266667 13.866667 5.333333 9.6 20.266667-9.6 10.666667-11.733333 10.666667-14.933333 2.133333-9.6-7.466667 4.266667-13.866667 2.133333-13.866667-3.2 0-6.4-7.466667-11.733333-16-11.733333s-16 4.266667-16 10.666667c0 22.4-22.4 9.6-42.666666-24.533334-17.066667-26.666667-21.333333-29.866667-21.333334-12.8 0 14.933333-3.2 17.066667-9.6 7.466667-4.266667-7.466667-14.933333-12.8-22.4-10.666667-8.533333 2.133333-13.866667-10.666667-14.933333-37.333333 0-21.333333 2.133333-39.466667 6.4-39.466667 4.266667 0 4.266667-7.466667 1.066667-18.133333-4.266667-11.733333-3.2-14.933333 6.4-9.6 8.533333 5.333333 14.933333 1.066667 19.2-13.866667 3.2-11.733333 9.6-20.266667 13.866666-17.066666 5.333333 3.2 12.8 0 16-6.4 4.266667-5.333333 14.933333-8.533333 23.466667-5.333334 8.533333 3.2 19.2 6.4 23.466667 6.4zM725.333333 602.666667c17.066667-10.666667 12.8 12.8-6.4 30.933333-29.866667 29.866667-50.133333 17.066667-39.466666-23.466667 4.266667-18.133333 8.533333-21.333333 20.266666-11.733333 7.466667 6.4 19.2 8.533333 25.6 4.266667z m-509.866666 13.866666c-2.133333 7.466667-8.533333 9.6-11.733334 4.266667-3.2-5.333333-13.866667-12.8-22.4-16-8.533333-3.2-3.2-5.333333 11.733334-4.266667 19.2 1.066667 26.666667 6.4 22.4 16zM544 646.4c0 2.133333-9.6 4.266667-22.4 4.266667-11.733333 0-19.2-4.266667-14.933333-10.666667 5.333333-8.533333 37.333333-3.2 37.333333 6.4z m71.466667 11.733333c-9.6 9.6-21.333333 13.866667-25.6 9.6-4.266667-4.266667-1.066667-11.733333 7.466666-17.066666 26.666667-17.066667 37.333333-11.733333 18.133334 7.466666z"
          fill="#813c85"></path>
    <path d="M518.4 282.666667c-9.6 9.6-17.066667 22.4-17.066667 29.866666 0 6.4 6.4 3.2 14.933334-8.533333 9.6-12.8 21.333333-17.066667 37.333333-12.8 14.933333 3.2 22.4 1.066667 19.2-6.4-6.4-20.266667-35.2-21.333333-54.4-2.133333zM554.666667 330.666667c0 5.333333 5.333333 10.666667 10.666666 10.666666 6.4 0 10.666667-5.333333 10.666667-10.666666 0-6.4-4.266667-10.666667-10.666667-10.666667-5.333333 0-10.666667 4.266667-10.666666 10.666667zM357.333333 448c3.2 5.333333 10.666667 10.666667 17.066667 10.666667 5.333333 0 9.6-5.333333 9.6-10.666667 0-6.4-7.466667-10.666667-17.066667-10.666667-8.533333 0-12.8 4.266667-9.6 10.666667zM697.6 478.933333c4.266667 5.333333 0 11.733333-6.4 14.933334-7.466667 3.2-3.2 4.266667 10.666667 4.266666 12.8-1.066667 23.466667-5.333333 23.466666-10.666666s7.466667-6.4 17.066667-3.2c8.533333 3.2 12.8 2.133333 9.6-4.266667-3.2-6.4-18.133333-10.666667-33.066667-10.666667-14.933333 0-24.533333 4.266667-21.333333 9.6zM898.133333 517.333333c-7.466667 8.533333-9.6 16-4.266666 16s16-7.466667 23.466666-16c17.066667-20.266667-1.066667-20.266667-19.2 0zM160 474.666667c-7.466667 9.6-10.666667 19.2-7.466667 22.4 3.2 3.2 10.666667-4.266667 18.133334-16 13.866667-26.666667 8.533333-28.8-10.666667-6.4zM202.666667 465.066667c0 10.666667 29.866667 36.266667 43.733333 36.266666 7.466667 0 2.133333-9.6-11.733333-21.333333-25.6-22.4-32-25.6-32-14.933333zM266.666667 505.6c0 2.133333 7.466667 7.466667 17.066666 10.666667 8.533333 3.2 12.8 2.133333 9.6-4.266667-6.4-10.666667-26.666667-14.933333-26.666666-6.4zM154.666667 522.666667c-3.2 6.4 1.066667 7.466667 9.6 4.266666 19.2-7.466667 22.4-14.933333 7.466666-14.933333-6.4 0-13.866667 4.266667-17.066666 10.666667zM247.466667 540.8c-6.4 2.133333-10.666667 9.6-6.4 14.933333 8.533333 14.933333 22.4 11.733333 22.4-6.4 0-8.533333-1.066667-16-1.066667-14.933333-1.066667 0-7.466667 3.2-14.933333 6.4zM288 545.066667c0 5.333333 5.333333 7.466667 10.666667 4.266666 6.4-3.2 10.666667-8.533333 10.666666-11.733333 0-2.133333-4.266667-4.266667-10.666666-4.266667-5.333333 0-10.666667 5.333333-10.666667 11.733334zM308.266667 562.133333c-13.866667 17.066667-12.8 18.133333 4.266666 4.266667 17.066667-13.866667 22.4-22.4 13.866667-22.4-2.133333 0-10.666667 8.533333-18.133333 18.133333zM330.666667 576c-6.4 11.733333-7.466667 21.333333-3.2 22.4 46.933333 4.266667 67.2 3.2 67.2-4.266667 0-4.266667 5.333333-5.333333 10.666666-2.133333 6.4 3.2 10.666667 3.2 10.666667-2.133333-1.066667-35.2-68.266667-45.866667-85.333333-13.866667z"
          fill="#813c85"></path>
</svg>